<?xml version="1.0" encoding="UTF-8" standalone="no"?>
<!-- Generator: Adobe Adobe Illustrator 24.2.0, SVG Export Plug-In . SVG Version: 6.00 Build 0)  -->

<svg
   version="1.1"
   x="0px"
   y="0px"
   width="417.53647"
   height="101.89783"
   viewBox="0 0 417.53647 101.89783"
   xml:space="preserve"
   id="svg110"
   sodipodi:docname="logo_white.svg"
   inkscape:version="1.2.2 (b0a8486541, 2022-12-01)"
   xmlns:inkscape="http://www.inkscape.org/namespaces/inkscape"
   xmlns:sodipodi="http://sodipodi.sourceforge.net/DTD/sodipodi-0.dtd"
   xmlns="http://www.w3.org/2000/svg"
   xmlns:svg="http://www.w3.org/2000/svg"><defs
   id="defs114" /><sodipodi:namedview
   id="namedview112"
   pagecolor="#ffffff"
   bordercolor="#000000"
   borderopacity="0.25"
   inkscape:showpageshadow="2"
   inkscape:pageopacity="0.0"
   inkscape:pagecheckerboard="0"
   inkscape:deskcolor="#d1d1d1"
   showgrid="false"
   inkscape:zoom="3.095453"
   inkscape:cx="208.85473"
   inkscape:cy="51.204137"
   inkscape:window-width="2560"
   inkscape:window-height="1052"
   inkscape:window-x="0"
   inkscape:window-y="0"
   inkscape:window-maximized="1"
   inkscape:current-layer="svg110" />
<style
   type="text/css"
   id="style2">
	.st0{fill:#F9B14B;}
	.st1{fill:#045474;}
	.st2{display:none;}
	.st3{display:inline;fill:#EFAD52;}
	.st4{fill:#005486;}
	.st5{display:none;fill:none;stroke:#005486;stroke-width:2.1533;stroke-miterlimit:10;}
	.st6{fill:#1D5673;}
	.st7{fill:#EFAD52;}
	.st8{fill:#285872;}
	.st9{fill:#FFFFFF;}
	.st10{fill:#E6AA57;}
	.st11{display:inline;fill:#315B73;}
</style>
<g
   id="Capa_2"
   transform="translate(-1.5200476,-51.756755)">
	<rect
   class="st1"
   width="420.94"
   height="205.50999"
   id="rect4"
   x="0"
   y="0" />
</g>
<g
   id="Capa_8"
   transform="matrix(1.112422,0,0,1.112422,-25.363222,-63.352463)">
	<g
   id="g107">
		<g
   id="g55">
			<g
   id="g29">
				<g
   id="g9">
					<path
   class="st9"
   d="m 178.57,112.54 c -0.82,-0.87 -1.23,-1.91 -1.23,-3.1 0,-1.19 0.4,-2.21 1.23,-3.1 0.81,-0.87 1.86,-1.31 3.11,-1.31 1.26,0 2.33,0.42 3.18,1.26 0.85,0.83 1.29,1.9 1.29,3.16 0,1.26 -0.43,2.32 -1.29,3.15 -0.85,0.83 -1.93,1.26 -3.18,1.26 -1.25,0 -2.3,-0.45 -3.11,-1.32 z m 6.56,10.28 v 21.5 c 0,1.87 -1.52,3.39 -3.39,3.39 -1.87,0 -3.39,-1.52 -3.39,-3.39 v -21.5 c 0,-1.86 1.51,-3.38 3.36,-3.39 1.9,-0.01 3.42,1.51 3.42,3.39 z"
   id="path7" />
				</g>
				<g
   id="g13">
					<path
   class="st9"
   d="m 221.63,133.43 c 0,2.23 -0.41,4.3 -1.21,6.14 -0.81,1.84 -1.91,3.45 -3.28,4.75 -0.3,0.29 -0.66,0.51 -0.98,0.76 -3.13,-0.47 -5.85,-1.26 -8.12,-2.32 0.72,-0.14 1.38,-0.35 1.97,-0.67 1.05,-0.57 1.94,-1.31 2.63,-2.21 0.69,-0.89 1.21,-1.92 1.56,-3.05 0.34,-1.13 0.52,-2.28 0.52,-3.41 0,-1.13 -0.17,-2.26 -0.52,-3.38 -0.35,-1.12 -0.87,-2.14 -1.56,-3.02 -0.69,-0.89 -1.58,-1.63 -2.64,-2.18 -1.06,-0.55 -2.34,-0.83 -3.8,-0.83 -1.46,0 -2.74,0.28 -3.8,0.83 -1.06,0.55 -1.95,1.28 -2.64,2.18 -0.69,0.89 -1.21,1.91 -1.56,3.02 -0.34,1.11 -0.52,2.25 -0.52,3.38 0,1.13 0.17,2.28 0.52,3.41 0.34,1.13 0.86,2.16 1.56,3.05 0.13,0.16 0.29,0.29 0.43,0.45 2.51,3.28 6.67,5.68 12.18,7.01 -0.05,0.02 -0.1,0.06 -0.15,0.08 -1.88,0.74 -3.91,1.12 -6.03,1.12 -2.11,0 -4.14,-0.38 -6.03,-1.12 -1.88,-0.75 -3.53,-1.79 -4.9,-3.1 -1.37,-1.31 -2.47,-2.91 -3.28,-4.75 -0.8,-1.84 -1.21,-3.9 -1.21,-6.14 0,-2.23 0.41,-4.29 1.21,-6.11 0.81,-1.83 1.91,-3.4 3.27,-4.69 1.37,-1.29 3.02,-2.31 4.9,-3.01 1.88,-0.71 3.91,-1.07 6.03,-1.07 2.12,0 4.15,0.36 6.03,1.07 1.88,0.7 3.53,1.72 4.9,3.01 1.36,1.29 2.47,2.86 3.27,4.69 0.84,1.82 1.25,3.88 1.25,6.11 z"
   id="path11" />
				</g>
				<g
   id="g17">
					<path
   class="st7"
   d="m 269.73,124.72 v -5.39 l -9.82,12.05 h 9.82 v -0.01 h 7.99 v 12.34 c 0,2.21 -1.79,4 -4,4 -2.21,0 -4,-1.79 -4,-4 v -5.25 h -15.9 c -2.29,0 -4.14,-1.85 -4.14,-4.14 v -0.62 c 0,-1.35 0.48,-2.65 1.36,-3.68 l 19.39,-22.71 c 0.79,-0.92 1.94,-1.45 3.15,-1.45 2.29,0 4.14,1.85 4.14,4.14 v 14.73 c 0,2.21 -1.79,4 -4,4 -2.2,-0.01 -3.99,-1.8 -3.99,-4.01 z"
   id="path15" />
				</g>
				<g
   id="g27">
					<g
   id="g21">
						<path
   class="st9"
   d="m 244,120.58 c -0.85,-0.83 -1.92,-1.26 -3.18,-1.26 -0.23,0 -0.44,0.02 -0.66,0.05 h -5.78 v -10.69 c 0,-1.83 -1.33,-3.5 -3.18,-3.5 -1.84,0 -3.49,1.67 -3.49,3.5 l -0.03,26.52 c 1,1.36 3.91,4.06 6.86,4.76 -0.12,-0.55 -0.17,-1.11 -0.17,-1.68 V 128.2 h 6.42 v -0.05 c 0.01,0 0.01,0 0.02,0 0.85,0 2.33,-0.42 3.18,-1.25 0.86,-0.83 1.29,-1.89 1.29,-3.15 0,-1.28 -0.43,-2.34 -1.28,-3.17 z"
   id="path19" />
					</g>
					<g
   id="g25">
						<path
   class="st6"
   d="m 241.48,142.95 -0.62,0.01 c -0.91,0 -1.78,-0.03 -2.71,-0.09 -0.45,-0.01 -0.83,-0.06 -1.18,-0.13 -3.98,-0.45 -7.08,-2.28 -9.23,-4.17 0.04,1.11 0.16,2.74 0.35,3.65 0.25,1.18 0.72,2.24 1.4,3.15 0.67,0.91 1.6,1.63 2.76,2.15 1.09,0.49 1.97,0.79 5.03,0.8 h 3.51 c 1.5,0 2.73,-1.22 2.73,-2.73 0.01,-1.26 -0.76,-2.64 -2.04,-2.64 z"
   id="path23" />
					</g>
				</g>
			</g>
			<g
   id="g53">
				<g
   id="g33">
					<path
   class="st9"
   d="m 333.98,139.67 c 0.44,1.04 -0.05,2.36 -0.21,2.74 -2.32,5.43 -7.58,6.13 -11.9,6.13 -2.16,0 -4.17,-0.35 -5.98,-1.04 -1.8,-0.68 -3.39,-1.66 -4.72,-2.92 -1.32,-1.25 -2.37,-2.81 -3.12,-4.63 -0.75,-1.83 -1.13,-3.93 -1.13,-6.24 0,-2.27 0.38,-4.38 1.13,-6.24 0.75,-1.87 1.79,-3.48 3.1,-4.79 1.31,-1.31 2.88,-2.35 4.66,-3.07 1.79,-0.73 3.75,-1.1 5.83,-1.1 1.92,0 3.72,0.33 5.36,0.98 1.63,0.64 3.05,1.62 4.24,2.89 1.3,1.39 2.24,3 2.8,4.77 0.32,1.03 0.57,2.11 0.75,3.21 0.2,1.29 -0.16,2.61 -1,3.61 -0.87,1.04 -2.13,1.64 -3.47,1.64 h -7.88 l -0.19,-0.01 h -0.89 c -1.28,0 -2.33,-1.06 -2.33,-2.37 0,-1.31 1.04,-2.37 2.33,-2.37 h 5.37 c 0.53,0 0.92,-0.18 1.18,-0.53 0.54,-0.75 0.22,-2 0.11,-2.36 -0.26,-0.86 -0.68,-1.63 -1.24,-2.29 -0.57,-0.66 -1.29,-1.19 -2.15,-1.58 -0.86,-0.39 -1.88,-0.59 -3.04,-0.59 -2.15,0 -4,0.67 -5.5,2 -1.5,1.32 -2.74,3.85 -2.74,8.09 0,2.01 0.59,4.26 1.06,5.14 0.46,0.88 1.08,1.65 1.84,2.28 0.75,0.63 1.62,1.13 2.58,1.5 0.96,0.37 1.97,0.55 3,0.55 1.84,0 4.84,0 6.95,-2.48 0.09,-0.11 0.2,-0.27 0.33,-0.45 0.51,-0.73 1.27,-1.84 2.57,-1.84 0.3,0 0.63,0.06 0.97,0.18 0.64,0.25 1.09,0.65 1.33,1.19 z"
   id="path31" />
				</g>
				<g
   id="g37">
					<path
   class="st9"
   d="m 366.44,142.25 c 0,0.85 -0.34,1.65 -0.96,2.26 l -0.13,0.13 0.01,0.01 c -1.29,1.17 -2.79,2.1 -4.44,2.77 -1.85,0.75 -3.84,1.12 -5.92,1.12 -2.07,0 -4.06,-0.38 -5.91,-1.12 -1.85,-0.75 -3.47,-1.79 -4.81,-3.11 -1.35,-1.31 -2.43,-2.91 -3.21,-4.76 -0.79,-1.84 -1.19,-3.91 -1.19,-6.15 0,-2.24 0.4,-4.3 1.19,-6.12 0.79,-1.82 1.87,-3.4 3.21,-4.7 1.34,-1.29 2.96,-2.31 4.81,-3.01 1.85,-0.71 3.84,-1.07 5.92,-1.07 2.08,0 4.07,0.36 5.92,1.07 1.72,0.66 3.26,1.61 4.58,2.82 v -0.01 l 0.06,0.07 c 0.57,0.59 0.88,1.37 0.88,2.19 0,1.73 -1.38,3.14 -3.08,3.14 -0.87,0 -1.69,-0.39 -2.29,-1.1 -0.75,-0.93 -1.35,-1.35 -2.34,-1.88 -1.04,-0.55 -2.3,-0.83 -3.73,-0.83 -1.43,0 -2.69,0.28 -3.73,0.83 -1.04,0.55 -1.91,1.28 -2.59,2.18 -0.68,0.9 -1.19,1.92 -1.53,3.03 -0.34,1.11 -0.51,2.25 -0.51,3.38 0,1.14 0.17,2.28 0.51,3.41 0.34,1.13 0.85,2.16 1.53,3.06 0.68,0.9 1.55,1.64 2.59,2.21 1.04,0.57 2.29,0.86 3.73,0.86 1.43,0 2.69,-0.29 3.73,-0.86 0.95,-0.52 1.71,-1.16 2.34,-1.97 0.63,-0.65 1.43,-1.01 2.28,-1.01 1.7,0.01 3.08,1.42 3.08,3.16 z"
   id="path35" />
				</g>
				<g
   id="g41">
					<path
   class="st9"
   d="M 372.36,122.08 V 108.4 c 0,-1.81 1.44,-3.3 3.21,-3.34 1.86,0 3.33,1.5 3.33,3.34 v 8.6 c -2.64,0.94 -4.94,2.73 -6.54,5.08 z m 25.78,9.47 v 12.73 c 0,1.89 -1.51,3.43 -3.36,3.43 -1.85,0 -3.36,-1.54 -3.36,-3.43 v -12.53 l 0.01,-0.2 c 0,-3.48 -2.77,-6.3 -6.18,-6.3 -3.36,0 -6.13,2.79 -6.17,6.22 v 12.81 c 0,1.89 -1.51,3.43 -3.36,3.43 -1.85,0 -3.36,-1.54 -3.36,-3.43 V 132.3 c 0,-7.3 5.47,-13.53 12.2,-13.89 0.23,-0.01 0.46,-0.02 0.69,-0.02 7.11,0.01 12.89,5.91 12.89,13.16 z"
   id="path39" />
				</g>
				<g
   id="g51">
					<g
   id="g45">
						<path
   class="st9"
   d="m 301.29,120.39 c -0.84,-0.84 -1.9,-1.26 -3.14,-1.26 -0.22,0 -0.44,0.02 -0.65,0.05 h -5.71 v -10.76 c 0,-1.84 -1.47,-3.35 -3.29,-3.35 -1.81,0 -3.28,1.51 -3.28,3.35 l -0.03,26.69 c 0.98,1.37 3.86,4.09 6.77,4.79 -0.12,-0.56 -0.17,-1.12 -0.17,-1.7 v -10.15 h 6.33 V 128 c 0.01,0 0.01,0 0.02,0 0.84,0 2.3,-0.43 3.14,-1.26 0.84,-0.84 1.27,-1.91 1.27,-3.17 0.01,-1.27 -0.42,-2.34 -1.26,-3.18 z"
   id="path43" />
					</g>
					<g
   id="g49">
						<path
   class="st9"
   d="m 298.8,142.91 -0.61,0.01 c -0.9,0 -1.76,-0.03 -2.68,-0.09 -0.44,-0.01 -0.82,-0.06 -1.16,-0.13 -3.93,-0.45 -6.99,-2.29 -9.11,-4.19 0.04,1.12 0.16,2.76 0.35,3.67 0.25,1.19 0.71,2.26 1.38,3.17 0.66,0.91 1.58,1.64 2.73,2.17 1.07,0.49 1.94,0.79 4.97,0.81 h 3.46 c 1.48,0 2.69,-1.23 2.69,-2.74 0.01,-1.29 -0.76,-2.68 -2.02,-2.68 z"
   id="path47" />
					</g>
				</g>
			</g>
		</g>
		<g
   id="g105">
			<g
   id="g69">
				<g
   id="g59">
					<path
   class="st7"
   d="m 57.99,96.87 c -0.22,-1.1 0.12,-2.14 0.36,-3.18 1.7,-7.18 5.23,-13.3 10.93,-18 9.8,-8.09 20.83,-10.05 32.91,-6.17 1.38,0.44 2.04,1.78 1.59,3.1 -0.44,1.28 -1.75,1.93 -3.12,1.46 -3.62,-1.23 -7.34,-1.8 -11.16,-1.59 -3.89,0.22 -7.59,1.15 -11.07,2.9 -7.23,3.62 -12.11,9.28 -14.68,16.92 -0.45,1.34 -0.71,2.75 -1.03,4.13 -0.2,0.88 -0.63,1.54 -1.49,1.88 -0.85,0.34 -1.64,0.21 -2.38,-0.31 -0.09,-0.06 -0.19,-0.11 -0.29,-0.17 -0.18,-0.32 -0.38,-0.65 -0.57,-0.97 z"
   id="path57" />
				</g>
				<g
   id="g63">
					<path
   class="st7"
   d="m 79.32,80.26 c 5.94,-3.32 12.61,-4.03 19.58,-1.74 0.95,0.31 1.59,0.93 1.77,1.93 0.17,0.96 -0.16,1.76 -0.93,2.35 -0.74,0.57 -1.57,0.58 -2.43,0.29 -2.53,-0.87 -5.12,-1.2 -7.78,-0.99 -8.6,0.68 -15.72,7.12 -17.28,15.64 -0.18,0.97 -0.56,1.77 -1.52,2.15 -1.83,0.71 -3.6,-0.7 -3.3,-2.64 0.37,-2.38 1.13,-4.65 2.22,-6.81 2.11,-4.2 5.21,-7.48 9.67,-10.18 z"
   id="path61" />
				</g>
				<g
   id="g67">
					<path
   class="st7"
   d="m 83.83,88.8 c 3.83,-2.17 7.83,-2.57 12.01,-1.18 1.31,0.44 1.97,1.74 1.56,3.03 -0.41,1.3 -1.72,1.98 -3.08,1.54 -2.08,-0.68 -4.17,-0.78 -6.24,-0.05 -3.51,1.24 -5.64,3.73 -6.4,7.37 -0.2,0.96 -0.65,1.68 -1.61,2.01 -1.74,0.6 -3.49,-0.82 -3.18,-2.63 0.64,-3.75 2.46,-6.81 5.49,-9.13 0.2,-0.16 0.4,-0.32 0.62,-0.46 0.26,-0.17 0.55,-0.33 0.83,-0.5 z"
   id="path65" />
				</g>
			</g>
			<g
   id="g73">
				<path
   class="st9"
   d="m 83.11,148.35 c 0,0 0,0 0,0 L 47.6,148.33 47.48,148.27 C 33.85,148.12 22.8,136.98 22.8,123.31 c 0,-13.4 10.61,-24.36 23.86,-24.94 0,-0.02 0,-0.05 0,-0.07 0.13,-11.34 4.8,-21.89 13.14,-29.72 8.51,-7.98 20.11,-12.19 31.83,-11.57 23.75,1.27 31.77,17.05 33.43,21.06 2.23,-0.36 4.51,-0.5 6.8,-0.43 9.05,0.3 17.57,4.05 23.98,10.59 6.41,6.53 10.02,15.12 10.15,24.17 0.14,9.54 -3.46,18.53 -10.15,25.32 -6.69,6.79 -15.63,10.53 -25.16,10.53 l -6.01,0.07 c -0.01,0 -0.02,0 -0.04,0 -3.76,0 -7.08,-2.32 -8.45,-5.91 l -0.24,-0.64 0.46,-0.51 c 0.01,-0.01 1.31,-1.45 1.94,-2.22 l 0.45,-0.54 4.98,1.24 c 0.94,-1.43 1.75,-2.96 2.42,-4.55 l -3.8,-3.44 0.2,-0.67 c 0.22,-0.76 0.4,-1.45 0.53,-2.13 0.04,-0.19 0.07,-0.39 0.1,-0.59 l 0.14,-0.85 4.94,-1.42 c 0.11,-1.73 0.05,-3.45 -0.17,-5.15 l -5.03,-1.08 -0.16,-0.68 c -0.23,-0.96 -0.51,-1.91 -0.86,-2.82 l -0.25,-0.66 3.57,-3.69 c -0.77,-1.54 -1.69,-3 -2.73,-4.37 l -4.89,1.58 -0.48,-0.51 c -0.68,-0.72 -1.4,-1.4 -2.15,-2.02 l -0.54,-0.45 1.24,-4.98 c -1.43,-0.94 -2.96,-1.76 -4.55,-2.42 l -3.44,3.81 -0.67,-0.2 c -0.31,-0.09 -0.69,-0.19 -1.07,-0.28 -0.17,-0.04 -0.29,0.03 -0.34,0.08 -0.06,0.05 -0.16,0.15 -0.16,0.32 l 0.26,38.97 -10.26,0.23 v -34.19 l -6.31,-0.1 -23.71,26.97 24.29,-0.01 0.03,7.07 c 0.01,1.83 -0.7,3.54 -1.99,4.84 -1.28,1.29 -2.99,2 -4.82,2 z m -34.95,-2.24 17.1,0.01 17.85,0.01 c 0,0 0,0 0.01,0 1.23,0 2.38,-0.48 3.25,-1.35 0.87,-0.87 1.34,-2.03 1.34,-3.26 l -0.02,-4.86 -27,0.01 27.63,-31.4 9.53,0.15 v 34.1 l 5.8,-0.13 -0.24,-36.79 c 0,-0.81 0.36,-1.57 0.99,-2.08 0.63,-0.51 1.45,-0.69 2.24,-0.5 0.17,0.04 0.34,0.08 0.51,0.13 l 3.54,-3.92 0.71,0.27 c 2.25,0.87 4.39,2.01 6.36,3.38 l 0.63,0.44 -1.28,5.12 c 0.45,0.4 0.9,0.81 1.33,1.25 l 5.03,-1.62 0.48,0.6 c 1.51,1.87 2.79,3.93 3.81,6.11 l 0.32,0.69 -3.67,3.8 c 0.2,0.57 0.38,1.15 0.53,1.74 l 5.17,1.11 0.12,0.75 c 0.37,2.36 0.45,4.78 0.23,7.2 l -0.07,0.76 -5.07,1.46 c -0.01,0.04 -0.02,0.08 -0.02,0.12 -0.11,0.53 -0.23,1.08 -0.39,1.65 l 3.91,3.54 -0.27,0.71 c -0.87,2.26 -2.01,4.4 -3.38,6.36 l -0.44,0.63 -5.12,-1.28 c -0.36,0.42 -0.77,0.88 -1.07,1.22 1.16,2.37 3.5,3.87 6.11,3.87 0.01,0 0.02,0 0.03,0 l 6.01,-0.07 c 8.94,0 17.31,-3.5 23.58,-9.87 6.27,-6.36 9.65,-14.79 9.51,-23.73 -0.13,-8.49 -3.5,-16.53 -9.51,-22.65 -6.01,-6.12 -13.99,-9.64 -22.47,-9.92 -2.43,-0.08 -4.87,0.11 -7.23,0.55 l -0.97,0.18 -0.29,-0.94 C 123.07,78.88 117.03,60.6 91.54,59.24 80.42,58.65 69.42,62.64 61.35,70.21 53.45,77.62 49.03,87.6 48.91,98.33 c 0,0.37 0,0.73 0,1.1 l 0.01,0.47 -0.66,0.66 -0.48,0.02 c -12.54,0 -22.74,10.2 -22.74,22.74 0,12.54 10.2,22.74 22.74,22.74 h 0.28 z"
   id="path71" />
			</g>
			<g
   id="g83">
				<g
   id="g77">
					<path
   class="st1"
   d="m 57.93,135.32 c 0,-2.78 2.25,-5.03 5.03,-5.03 2.78,0 5.03,2.25 5.03,5.03 0,2.78 -2.25,5.03 -5.03,5.03 -2.78,0 -5.03,-2.25 -5.03,-5.03"
   id="path75" />
				</g>
				<g
   id="g81">
					<path
   class="st7"
   d="m 62.96,141.46 c -3.39,0 -6.15,-2.76 -6.15,-6.14 0,-3.38 2.76,-6.14 6.15,-6.14 3.39,0 6.14,2.76 6.14,6.14 0,3.38 -2.75,6.14 -6.14,6.14 z m 0,-10.06 c -2.16,0 -3.92,1.76 -3.92,3.92 0,2.16 1.76,3.92 3.92,3.92 2.16,0 3.92,-1.76 3.92,-3.92 0.01,-2.16 -1.75,-3.92 -3.92,-3.92 z"
   id="path79" />
				</g>
			</g>
			<g
   id="g93">
				<g
   id="g87">
					<path
   class="st10"
   d="m 87.93,105.04 c 0,-2.78 2.25,-5.03 5.03,-5.03 2.78,0 5.03,2.25 5.03,5.03 0,2.78 -2.25,5.03 -5.03,5.03 -2.78,0 -5.03,-2.25 -5.03,-5.03"
   id="path85" />
				</g>
				<g
   id="g91">
					<path
   class="st10"
   d="m 92.96,111.19 c -3.39,0 -6.15,-2.76 -6.15,-6.14 0,-3.38 2.76,-6.14 6.15,-6.14 3.39,0 6.14,2.76 6.14,6.14 0,3.38 -2.75,6.14 -6.14,6.14 z m 0,-10.07 c -2.16,0 -3.92,1.76 -3.92,3.92 0,2.16 1.76,3.92 3.92,3.92 2.16,0 3.92,-1.76 3.92,-3.92 0,-2.16 -1.76,-3.92 -3.92,-3.92 z"
   id="path89" />
				</g>
			</g>
			<g
   id="g103">
				<g
   id="g97">
					<path
   class="st1"
   d="m 95.7,142.4 c 0,-2.78 2.25,-5.03 5.03,-5.03 2.78,0 5.03,2.25 5.03,5.03 0,2.78 -2.25,5.03 -5.03,5.03 -2.78,0 -5.03,-2.25 -5.03,-5.03"
   id="path95" />
				</g>
				<g
   id="g101">
					<path
   class="st7"
   d="m 100.74,148.55 c -3.39,0 -6.15,-2.76 -6.15,-6.14 0,-3.38 2.76,-6.14 6.15,-6.14 3.39,0 6.14,2.76 6.14,6.14 0,3.38 -2.75,6.14 -6.14,6.14 z m 0,-10.07 c -2.16,0 -3.92,1.76 -3.92,3.92 0,2.16 1.76,3.92 3.92,3.92 2.16,0 3.92,-1.76 3.92,-3.92 0,-2.16 -1.76,-3.92 -3.92,-3.92 z"
   id="path99" />
				</g>
			</g>
		</g>
	</g>
</g>
</svg>
